#!OML:ASF E:\Mandelcareful walks\Project 1\Capture day 1\Session 1\Subject1.ASF
:FULLY-SPECIFIED
:DEGREES
1041
root 48.496 16.2285 -7.02507 -1440.86 -48.8915 -346.658
lowerback 7.61156 -0.50807 -6.2157
upperback 3.6548 -1.12595 1.52254
thorax -0.318285 -0.672438 5.16697
lowerneck -20.5689 -9.98267 -12.659
upperneck 23.5002 -13.998 13.2899
head 13.2444 -5.78103 4.64384
rclavicle -4.37326e-014 0
rhumerus -40.9517 -5.90228 -71.9115
rradius 49.2344
rwrist -22.5936
rhand -14.0677 -29.5708
rfingers 7.12502
rthumb 12.0639 -59.2031
lclavicle -4.37326e-014 0
lhumerus -35.6768 -10.7343 76.2718
lradius 28.6019
lwrist 10.328
lhand -18.4228 -9.23734
lfingers 7.12502
lthumb 7.86223 20.5965
rfemur -31.7451 5.30737 -0.932829
rtibia 66.9771
rfoot 0.303305 -16.6832
rtoes -8.10484
lfemur -15.7022 -10.4021 -22.7448
ltibia 29.5407
lfoot -21.1286 6.14445
ltoes -10.4678
1042
root 48.571 16.2401 -6.85202 -1440.49 -49.1452 -347.427
lowerback 7.61496 -0.576451 -5.72731
upperback 3.62402 -1.18405 1.56065
thorax -0.356877 -0.693786 4.93413
lowerneck -20.4988 -9.83776 -12.2391
upperneck 23.7703 -13.9018 13.0237
head 13.2626 -5.73433 4.49895
rclavicle -6.36111e-014 9.54166e-015
rhumerus -41.865 -5.87169 -72.1416
rradius 48.6788
rwrist -22.1487
rhand -13.0555 -29.4365
rfingers 7.12502
rthumb 13.0397 -59.009
lclavicle -6.36111e-014 9.54166e-015
lhumerus -33.7703 -10.6727 73.8639
lradius 28.9758
lwrist 10.6038
lhand -18.6601 -8.85819
lfingers 7.12502
lthumb 7.63325 20.9841
rfemur -33.2628 4.08617 1.03552
rtibia 68.7952
rfoot -1.15589 -14.9214
rtoes -5.68107
lfemur -15.1801 -11.536 -23.0665
ltibia 29.3728
lfoot -21.3366 7.45184
ltoes -9.01936
1043
root 48.6359 16.2392 -6.69152 -1440.42 -49.4363 -347.672
lowerback 7.52639 -0.750204 -6.06092
upperback 3.61863 -1.42982 1.82176
thorax -0.263561 -0.826505 5.41326
lowerneck -20.6342 -9.62047 -12.242
upperneck 24.1145 -13.5281 12.7317
head 13.3433 -5.5968 4.46844
rclavicle 7.07673e-014 -4.29375e-014
rhumerus -42.3587 -5.0777 -72.2082
rradius 47.999
rwrist -21.6568
rhand -12.0914 -28.7084
rfingers 7.12502
rthumb 13.9689 -58.2191
lclavicle 7.07673e-014 -4.29375e-014
lhumerus -31.9599 -9.57793 71.8412
lradius 29.5811
lwrist 11.5122
lhand -19.3948 -8.42091
lfingers 7.12502
lthumb 6.92409 21.4458
rfemur -34.8025 2.9435 2.82989
rtibia 70.004
rfoot -2.74269 -11.1991
rtoes -8.66067
lfemur -14.9296 -12.112 -23.6395
ltibia 29.6049
lfoot -21.6643 8.22932
ltoes -7.18139
1044
root 48.6925 16.2261 -6.53483 -1440.38 -49.8599 -347.769
lowerback 7.38874 -0.765273 -6.48723
upperback 3.51671 -1.46857 1.94739
thorax -0.270175 -0.84848 5.78908
lowerneck -20.3699 -9.43469 -12.0999
upperneck 24.2945 -13.3273 12.5966
head 13.3068 -5.52453 4.4459
rclavicle -2.98177e-014 -1.11319e-014
rhumerus -42.9942 -5.00302 -72.2099
rradius 47.1621
rwrist -20.575
rhand -10.7775 -28.1894
rfingers 7.12502
rthumb 15.2348 -57.6085
lclavicle -2.98177e-014 -1.11319e-014
lhumerus -30.3371 -9.3225 70.1306
lradius 30.7723
lwrist 13.428
lhand -20.772 -7.61614
lfingers 7.12502
lthumb 5.59451 22.29
rfemur -36.4141 2.07223 4.70466
rtibia 70.5219
rfoot -4.24727 -7.1315
rtoes -11.9154
lfemur -14.831 -12.3081 -24.2085
ltibia 30.0682
lfoot -22.2488 8.41818
ltoes -3.76748
1045
root 48.7298 16.1991 -6.36947 -1440.47 -50.2493 -347.72
lowerback 7.12397 -0.930893 -6.98037
upperback 3.53711 -1.70126 2.11254
thorax -0.043174 -0.982512 6.25221
lowerneck -20.8236 -9.20685 -12.2103
upperneck 24.7825 -12.9326 12.4588
head 13.5358 -5.35574 4.49488
rclavicle -5.12864e-014 1.59028e-015
rhumerus -43.1024 -4.84324 -72.2133
rradius 46.0013
rwrist -19.1233
rhand -9.506 -28.0352
rfingers 7.12502
rthumb 16.4593 -57.357
lclavicle -5.12864e-014 1.59028e-015
lhumerus -28.6638 -8.44669 68.5711
lradius 32.0941
lwrist 15.2736
lhand -22.2748 -7.31478
lfingers 7.12502
lthumb 4.14341 22.6247
rfemur -37.7138 1.11775 6.66435
rtibia 70.4251
rfoot -5.43585 -3.52586
rtoes -13.7066
lfemur -14.7079 -12.1027 -24.8728
ltibia 30.6788
lfoot -23.0546 8.18749
ltoes -0.902591
1046
root 48.763 16.1695 -6.20207 -1440.41 -50.6497 -347.761
lowerback 6.86096 -1.04515 -7.17002
upperback 3.44723 -1.84654 2.09916
thorax 0.0394004 -1.05722 6.34839
lowerneck -21.2713 -8.98679 -11.9554
upperneck 25.3705 -12.6492 12.1827
head 13.7846 -5.21951 4.40781
rclavicle -2.90226e-014 7.15625e-015
rhumerus -43.4456 -5.23291 -72.3099
rradius 44.6715
rwrist -17.4975
rhand -8.65396 -27.8981
rfingers 7.12502
rthumb 17.2795 -57.1499
lclavicle -2.90226e-014 7.15625e-015
lhumerus -26.9882 -8.00789 67.0271
lradius 33.4761
lwrist 16.9212
lhand -23.7203 -7.64212
lfingers 7.12502
lthumb 2.74749 22.3199
rfemur -38.8944 -0.0731045 8.95169
rtibia 69.8403
rfoot -6.82711 -0.869608
rtoes -13.4179
lfemur -14.7179 -11.6962 -25.4709
ltibia 31.316
lfoot -23.8245 7.98614
ltoes 0.390971
